<svg xmlns="http://www.w3.org/2000/svg" viewBox="0 0 49.25 49.249"><title>app-store</title><path d="M24.625,0A24.625,24.625,0,1,0,49.25,24.624,24.624,24.624,0,0,0,24.625,0ZM8.236,25.311V20.94a.675.675,0,0,1,.676-.674h7.556l-3.283,5.721H8.913A.677.677,0,0,1,8.236,25.311Zm5.378,9.238L11.1,36.256c-.34.232-.578.088-.532-.322l.337-2.928a.455.455,0,0,1,.731-.369l1.944,1.115A.435.435,0,0,1,13.614,34.549Zm1.625-1.926a.749.749,0,0,1-1.02.273l-1.945-1.117A.747.747,0,0,1,12,30.761l2.742-4.775,3.286-5.721,2.98-5.194a.748.748,0,0,1,1.02-.273l1.943,1.113a.749.749,0,0,1,.275,1.02l-2.734,4.762L19.05,25.986Zm5.368-6.636,3.283-5.721h2.975c1.15,2.615,2.008,4.441,2.654,5.721ZM32.24,27.906c-.777-.393-4.656-9.344-5.65-11.678s-4-8.553-3.027-9.039c.693-.344,3.176,4.549,5.033,7.488,1.061,1.678,2.781,4.866,4.152,7.456.018.033.035.068.053.1.062.117.123.234.184.348.018.033.035.064.051.1.055.1.107.2.16.3q.044.089.09.168c.033.068.068.135.1.2.047.088.094.174.141.26a.511.511,0,0,0,.021.047c.594,1.127,1.047,2,1.227,2.332.014.027.029.053.039.072.477.865-.455,1.588-.975,1.8A1.5,1.5,0,0,1,32.24,27.906Zm2.549,4.114-1.17-1.852a.735.735,0,0,1,.275-1.066l1.115-.574a.826.826,0,0,1,1.1.365l.926,1.779a.879.879,0,0,1-.314,1.145l-.8.477A.839.839,0,0,1,34.789,32.02Zm4.763,5.306c-.246-.787-2.115-.838-2.953-2.018a1.353,1.353,0,0,1,.146-2.064C40.14,31.33,39.552,37.326,39.552,37.326Zm.971-12.015a.676.676,0,0,1-.676.676H36.222A2.421,2.421,0,0,0,36,25.409c-.1-.176-.375-.7-.725-1.371-.5-.961-1.219-2.324-1.992-3.771h6.564a.675.675,0,0,1,.676.674v4.37Z"/></svg>