<svg width="363" height="420" viewBox="0 0 363 420" fill="none" xmlns="http://www.w3.org/2000/svg">
<path d="M206.573 419.827V277.582C201.754 295.417 191.262 307.993 180.33 307.993C179.752 307.993 179.17 307.959 178.602 307.89C171.892 307.071 166.204 301.616 162.584 292.522C159.049 283.629 157.889 272.256 159.326 260.508C159.597 258.303 159.953 256.128 160.392 254.002C159.908 255.383 159.39 256.764 158.837 258.135C150.774 278.233 137.447 292.822 127.152 292.822C125.839 292.822 124.585 292.586 123.42 292.122C115.85 289.094 113.066 276.877 116.107 260.661C110.498 264.646 104.874 268.078 99.7193 270.663C92.2784 274.396 85.8744 276.364 81.1886 276.364C74.3254 276.364 71.4764 271.24 73.3083 264.932C75.387 257.766 79.0259 251.053 83.9043 245.401C60.0904 236.38 39.3082 216.095 35.605 190.927C33.5164 176.732 36.8641 162.602 39.0613 148.639C41.4215 133.641 41.298 119.121 38.0491 104.236C36.4937 97.0652 34.2472 89.968 31.3686 83.1421L31.2896 82.9596V82.9942C29.1516 77.929 26.6483 72.9871 23.8487 68.3066C17.8347 58.2403 8.48292 50.4625 3.25897 39.8734C-2.54761 28.0957 0.59269 14.434 11.2233 6.43922C18.0371 1.31484 26.6482 0.816707 34.9088 0.930144C51.3311 1.15702 67.7239 2.50839 83.8648 5.70434C100.845 9.06799 117.445 14.2614 133.324 21.1367C138.089 23.1983 143.071 25.2302 147.564 27.8393C180.918 44.8351 210.474 69.6481 233.039 99.6003L233.236 99.8617V99.8814C233.256 99.911 233.281 99.9406 233.3 99.9702C233.36 100.054 233.424 100.138 233.483 100.222C233.577 100.35 233.671 100.483 233.764 100.611C233.888 100.779 234.006 100.947 234.13 101.114C234.273 101.312 234.411 101.504 234.554 101.701C234.712 101.913 234.866 102.13 235.024 102.343C235.186 102.569 235.349 102.791 235.512 103.018C235.675 103.245 235.843 103.472 236.006 103.699C236.164 103.921 236.327 104.138 236.485 104.36C236.633 104.562 236.781 104.769 236.929 104.971C237.063 105.154 237.191 105.331 237.324 105.514L237.645 105.958C237.719 106.061 237.798 106.17 237.877 106.273C238.016 106.461 238.144 106.658 238.267 106.855C238.297 106.905 238.327 106.959 238.356 107.008C248.459 98.7964 261.153 94.2885 274.228 94.2885C282.898 94.2885 291.223 96.1873 298.97 99.9308C304.935 102.811 310.312 106.683 314.948 111.437L316.261 112.784C316.261 112.784 314.41 113.099 314.405 113.099C312.42 113.435 310.425 113.518 308.485 112.877C306.959 112.374 305.552 111.575 304.169 110.757C300.422 108.532 296.753 106.086 292.66 104.518C288.532 102.934 284.197 101.889 279.812 101.272C277.324 100.922 274.786 100.646 272.268 100.646C261.657 100.646 253.441 103.733 248.883 105.854C256.872 107.072 263.005 113.972 263.005 122.278C263.005 131.441 255.534 138.894 246.355 138.894C245.491 138.894 244.627 138.83 243.783 138.696C242.958 142.948 237.719 153.557 237.655 153.665C228.442 168.629 209.546 176.841 192.274 182.902C187.149 184.702 181.861 186.241 176.745 187.731C169.749 189.768 162.515 191.879 155.672 194.66C144.864 199.05 134.86 204.697 134.816 216.213C134.781 224.898 143.234 233.174 158.61 239.517C174.267 245.973 195.128 249.578 217.347 249.667H217.88C263.01 249.667 299.78 234.955 299.854 216.869C299.864 214.758 299.34 212.677 298.447 210.768C297.41 208.564 295.909 206.596 294.21 204.855C292.156 202.749 289.801 200.939 287.327 199.351C286.809 199.015 286.157 198.631 286.389 197.896C286.542 197.417 287.1 197.102 287.678 197.24C290.413 198.522 291.682 199.153 292.334 199.469C292.892 199.74 293.341 199.962 293.692 200.135C294.274 200.391 294.827 200.653 295.385 200.934C295.815 201.146 296.195 201.348 296.867 201.708L297.074 201.817C297.607 202.098 298.136 202.384 298.664 202.67L298.832 202.724L298.896 202.793L299.019 202.862C304.717 205.979 310.287 209.446 315.575 213.175C317.654 214.63 319.688 216.134 321.628 217.639C328.758 223.128 335.528 229.244 341.749 235.808C345.531 239.695 348.918 243.581 351.797 247.339C361.317 259.768 364.506 269.558 360.541 274.194C359.06 275.93 356.71 276.813 353.56 276.813C348.82 276.813 342.322 274.796 334.767 270.988C329.603 268.389 324.166 265.07 318.582 261.104C321.628 277.316 318.839 289.538 311.26 292.566C310.094 293.03 308.835 293.266 307.522 293.266C297.207 293.266 283.861 278.672 275.783 258.569C275.23 257.188 274.707 255.803 274.223 254.417C274.667 256.552 275.023 258.732 275.294 260.942C276.731 272.7 275.571 284.073 272.026 292.965C268.401 302.06 262.704 307.52 255.983 308.339C255.411 308.408 254.828 308.442 254.25 308.442C247.822 308.442 241.358 304.136 236.055 296.324C232.165 290.598 229.158 283.358 227.311 275.397V419.807H206.573V419.827Z" fill="url(#paint0_linear_101_53)"/>
<defs>
<linearGradient id="paint0_linear_101_53" x1="181.298" y1="-101.306" x2="181.298" y2="405.697" gradientUnits="userSpaceOnUse">
<stop stop-color="#000"/>
<stop offset="0.8" stop-color="#000"/>
<stop offset="0.81" stop-color="#000" stop-opacity="0.95"/>
<stop offset="0.84" stop-color="#000" stop-opacity="0.83"/>
<stop offset="0.87" stop-color="#000" stop-opacity="0.63"/>
<stop offset="0.91" stop-color="#000" stop-opacity="0.34"/>
<stop offset="0.96" stop-color="#000" stop-opacity="0"/>
</linearGradient>
</defs>
</svg>
