<svg width="363" height="420" viewBox="0 0 363 420" fill="none" xmlns="http://www.w3.org/2000/svg">
<path d="M206.989 419.827V277.582C202.17 295.417 191.678 307.993 180.746 307.993C180.168 307.993 179.585 307.959 179.018 307.89C172.307 307.071 166.619 301.616 163 292.522C159.465 283.629 158.304 272.256 159.741 260.508C160.013 258.303 160.368 256.128 160.808 254.002C160.324 255.383 159.805 256.764 159.252 258.135C151.189 278.233 137.863 292.822 127.568 292.822C126.255 292.822 125.001 292.586 123.835 292.122C116.266 289.094 113.481 276.877 116.523 260.661C110.914 264.646 105.29 268.078 100.135 270.663C92.6941 274.396 86.29 276.364 81.6043 276.364C74.7411 276.364 71.8921 271.24 73.7239 264.932C75.8027 257.766 79.4416 251.053 84.3199 245.401C60.506 236.38 39.7238 216.095 36.0207 190.927C33.9321 176.732 37.2797 162.602 39.477 148.639C41.8371 133.641 41.7137 119.121 38.4647 104.236C36.9094 97.0652 34.6629 89.968 31.7843 83.1421L31.7052 82.9596V82.9942C29.5673 77.929 27.0639 72.9871 24.2643 68.3066C18.2504 58.2403 8.89859 50.4625 3.67465 39.8734C-2.13193 28.0957 1.00836 14.434 11.6389 6.43922C18.4528 1.31484 27.0639 0.816707 35.3245 0.930144C51.7468 1.15702 68.1395 2.50839 84.2805 5.70434C101.261 9.06799 117.861 14.2614 133.74 21.1367C138.505 23.1983 143.487 25.2302 147.98 27.8393C181.333 44.8351 210.89 69.6481 233.454 99.6003L233.652 99.8617V99.8814C233.672 99.911 233.696 99.9406 233.716 99.9702C233.775 100.054 233.839 100.138 233.899 100.222C233.992 100.35 234.086 100.483 234.18 100.611C234.304 100.779 234.422 100.947 234.545 101.114C234.689 101.312 234.827 101.504 234.97 101.701C235.128 101.913 235.281 102.13 235.439 102.343C235.602 102.569 235.765 102.791 235.928 103.018C236.091 103.245 236.259 103.472 236.422 103.699C236.58 103.921 236.743 104.138 236.901 104.36C237.049 104.562 237.197 104.769 237.345 104.971C237.478 105.154 237.607 105.331 237.74 105.514L238.061 105.958C238.135 106.061 238.214 106.17 238.293 106.273C238.431 106.461 238.56 106.658 238.683 106.855C238.713 106.905 238.742 106.959 238.772 107.008C248.874 98.7964 261.569 94.2885 274.644 94.2885C283.314 94.2885 291.639 96.1873 299.386 99.9308C305.35 102.811 310.727 106.683 315.364 111.437L316.677 112.784C316.677 112.784 314.825 113.099 314.821 113.099C312.836 113.435 310.841 113.518 308.9 112.877C307.375 112.374 305.967 111.575 304.585 110.757C300.837 108.532 297.169 106.086 293.075 104.518C288.948 102.934 284.612 101.889 280.228 101.272C277.739 100.922 275.201 100.646 272.683 100.646C262.072 100.646 253.856 103.733 249.299 105.854C257.288 107.072 263.42 113.972 263.42 122.278C263.42 131.441 255.95 138.894 246.771 138.894C245.907 138.894 245.043 138.83 244.198 138.696C243.374 142.948 238.135 153.557 238.071 153.665C228.857 168.629 209.961 176.841 192.69 182.902C187.565 184.702 182.276 186.241 177.161 187.731C170.165 189.768 162.931 191.879 156.088 194.66C145.279 199.05 135.276 204.697 135.231 216.213C135.197 224.898 143.65 233.174 159.025 239.517C174.682 245.973 195.544 249.578 217.763 249.667H218.296C263.425 249.667 300.195 234.955 300.27 216.869C300.279 214.758 299.756 212.677 298.862 210.768C297.825 208.564 296.324 206.596 294.626 204.855C292.572 202.749 290.217 200.939 287.743 199.351C287.224 199.015 286.573 198.631 286.805 197.896C286.958 197.417 287.516 197.102 288.093 197.24C290.829 198.522 292.098 199.153 292.75 199.469C293.307 199.74 293.757 199.962 294.107 200.135C294.69 200.391 295.243 200.653 295.801 200.934C296.231 201.146 296.611 201.348 297.282 201.708L297.49 201.817C298.023 202.098 298.551 202.384 299.08 202.67L299.247 202.724L299.312 202.793L299.435 202.862C305.133 205.979 310.703 209.446 315.991 213.175C318.069 214.63 320.104 216.134 322.044 217.639C329.174 223.128 335.943 229.244 342.165 235.808C345.947 239.695 349.334 243.581 352.213 247.339C361.732 259.768 364.922 269.558 360.957 274.194C359.476 275.93 357.126 276.813 353.975 276.813C349.235 276.813 342.738 274.796 335.183 270.988C330.018 268.389 324.582 265.07 318.998 261.104C322.044 277.316 319.254 289.538 311.675 292.566C310.51 293.03 309.251 293.266 307.938 293.266C297.623 293.266 284.277 278.672 276.199 258.569C275.646 257.188 275.122 255.803 274.639 254.417C275.083 256.552 275.438 258.732 275.71 260.942C277.147 272.7 275.986 284.073 272.441 292.965C268.817 302.06 263.119 307.52 256.399 308.339C255.826 308.408 255.244 308.442 254.666 308.442C248.237 308.442 241.774 304.136 236.471 296.324C232.58 290.598 229.573 283.358 227.727 275.397V419.807H206.989V419.827Z" fill="url(#paint0_linear_101_6)"/>
<defs>
<linearGradient id="paint0_linear_101_6" x1="181.714" y1="-101.306" x2="181.714" y2="405.697" gradientUnits="userSpaceOnUse">
<stop/>
<stop offset="0.8"/>
<stop offset="0.81" stop-opacity="0.95"/>
<stop offset="0.84" stop-opacity="0.83"/>
<stop offset="0.87" stop-opacity="0.63"/>
<stop offset="0.91" stop-opacity="0.34"/>
<stop offset="0.96" stop-opacity="0"/>
</linearGradient>
</defs>
</svg>
